<?xml version="1.0" encoding="UTF-8" standalone="no" ?>
<!DOCTYPE svg PUBLIC "-//W3C//DTD SVG 1.1//EN" "http://www.w3.org/Graphics/SVG/1.1/DTD/svg11.dtd">
<svg xmlns="http://www.w3.org/2000/svg" xmlns:xlink="http://www.w3.org/1999/xlink" version="1.1" width="1280" height="1018.9594727430555" viewBox="0 0 1280 1018.9594727430555" xml:space="preserve">
<desc>Created with Fabric.js 5.3.0</desc>
<defs>
</defs>
<g transform="matrix(1 0 0 1 640 509.47973637152774)" id="background-logo"  >
<rect style="stroke: none; stroke-width: 0; stroke-dasharray: none; stroke-linecap: butt; stroke-dashoffset: 0; stroke-linejoin: miter; stroke-miterlimit: 4; fill: rgb(255,255,255); fill-opacity: 0; fill-rule: nonzero; opacity: 1;"  paint-order="stroke"  x="-914.4228326329265" y="-731.5382661063413" rx="0" ry="0" width="1828.845665265853" height="1463.0765322126827" />
</g>
<g transform="matrix(2.8136087157936203 0 0 2.8136087157936203 639.4583803222098 509.47973637152774)" id="logo-logo"  >
<g style=""  paint-order="stroke"   >
		<g transform="matrix(1.5378208580925297 0 0 1.5378208580925297 1.4666124535140739 14.569414937359369)"  >
<g style=""  paint-order="stroke"   >
		<g transform="matrix(1 0 0 1 0.009999173439226183 1.421085e-14)"  >
<path style="stroke: none; stroke-width: 1; stroke-dasharray: none; stroke-linecap: butt; stroke-dashoffset: 0; stroke-linejoin: miter; stroke-miterlimit: 4; fill: rgb(255,173,212); fill-rule: nonzero; opacity: 1;"  paint-order="stroke"  transform=" translate(-125.00999917343923, -108.275)" d="M 226.14 108.27 C 226.14 112.08999999999999 225.91 115.86 225.48999999999998 119.57 L 223.26 119.57 C 223.67999999999998 115.86 223.92999999999998 112.08999999999999 223.92999999999998 108.27 C 223.92999999999998 53.72 179.54999999999998 9.349999999999994 125.00999999999998 9.349999999999994 C 70.46999999999997 9.349999999999994 26.089999999999975 53.73 26.089999999999975 108.27 C 26.089999999999975 112.08999999999999 26.329999999999973 115.86 26.759999999999977 119.57 L 24.529999999999976 119.57 C 24.119999999999976 115.86 23.879999999999978 112.08999999999999 23.879999999999978 108.27 C 23.87 52.51 69.23 7.14 125 7.14 C 180.76999999999998 7.14 226.14 52.51 226.14 108.27 z M 125 209.41 C 156.4 209.41 184.5 195.03 203.06 172.51 L 200.14000000000001 172.51 C 181.98000000000002 193.72 155.04000000000002 207.2 125.00000000000001 207.2 C 94.96000000000001 207.2 68.02000000000001 193.72 49.860000000000014 172.51 L 46.94000000000001 172.51 C 65.5 195.03 93.6 209.41 125 209.41 z M 154.55 172.5 L 148.83 172.5 C 141.4 175.26 133.37 176.78 125.00000000000001 176.78 C 116.62000000000002 176.78 108.59000000000002 175.26 101.17000000000002 172.5 L 95.45000000000002 172.5 C 104.45000000000002 176.66 114.46000000000002 178.99 125.00000000000001 178.99 C 135.55 179 145.55 176.66 154.55 172.5 z M 125 37.55 C 86 37.55 54.269999999999996 69.28 54.269999999999996 108.28 C 54.269999999999996 112.13 54.589999999999996 115.9 55.17999999999999 119.58 L 57.42999999999999 119.58 C 56.81999999999999 115.89999999999999 56.47999999999999 112.13 56.47999999999999 108.28 C 56.47999999999999 70.5 87.21999999999998 39.769999999999996 124.99 39.769999999999996 C 162.76999999999998 39.769999999999996 193.5 70.50999999999999 193.5 108.28 C 193.5 112.13 193.16 115.9 192.55 119.58 L 194.8 119.58 C 195.39000000000001 115.89999999999999 195.71 112.12 195.71 108.28 C 195.73 69.28 164 37.55 125 37.55 z" stroke-linecap="round" />
</g>
		<g transform="matrix(1 0 0 1 0 0)"  >
<path style="stroke: none; stroke-width: 1; stroke-dasharray: none; stroke-linecap: butt; stroke-dashoffset: 0; stroke-linejoin: miter; stroke-miterlimit: 4; fill: rgb(54,182,254); fill-rule: nonzero; opacity: 1;"  paint-order="stroke"  transform=" translate(-125, -108.27499999999999)" d="M 249.01 122.53 L 250 122.53 L 250 119.58 L 232.68 119.58 C 233.07 115.86 233.27 112.09 233.27 108.28 C 233.27 48.57 184.7 0 125 0 C 65.30000000000001 0 16.73 48.57 16.73 108.27 C 16.73 112.08999999999999 16.93 115.86 17.32 119.57 L 0 119.57 L 0 122.52 L 0.99 122.52 L 249.01 122.52 z M 63.72 108.27 C 63.72 74.47999999999999 91.21 46.989999999999995 125 46.989999999999995 C 158.79000000000002 46.989999999999995 186.28 74.47999999999999 186.28 108.27 C 186.28 112.13 185.9 115.91 185.22 119.57 L 64.78 119.57 C 64.09 115.91 63.72 112.14 63.72 108.27 z M 19.68 108.27 C 19.68 50.2 66.92 2.95 125 2.95 C 183.07999999999998 2.95 230.32 50.2 230.32 108.27 C 230.32 112.08999999999999 230.1 115.86 229.70999999999998 119.57 L 225.48999999999998 119.57 L 223.26 119.57 L 194.81 119.57 L 192.56 119.57 L 188.21 119.57 C 188.87 115.89999999999999 189.23000000000002 112.11999999999999 189.23000000000002 108.27 C 189.23000000000002 72.85 160.42000000000002 44.03999999999999 125.00000000000001 44.03999999999999 C 89.58000000000001 44.03999999999999 60.77000000000001 72.85 60.77000000000001 108.27 C 60.77000000000001 112.13 61.13000000000001 115.89999999999999 61.79000000000001 119.57 L 57.44000000000001 119.57 L 55.19000000000001 119.57 L 26.74 119.57 L 24.509999999999998 119.57 L 20.29 119.57 C 19.89 115.86 19.68 112.09 19.68 108.27 z M 0.99 169.56 L 0 169.56 L 0 172.51 L 37.9 172.51 C 57.64 199.2 89.33 216.54999999999998 125 216.54999999999998 C 160.67000000000002 216.54999999999998 192.36 199.2 212.1 172.51 L 250 172.51 L 250 169.56 L 249.01 169.56 L 0.99 169.56 z M 125 213.6 C 91.09 213.6 60.89 197.47 41.61 172.51 L 46.94 172.51 L 49.86 172.51 L 95.45 172.51 L 101.17 172.51 L 148.84 172.51 L 154.56 172.51 L 200.15 172.51 L 203.07 172.51 L 208.4 172.51 C 189.11 197.47 158.91 213.6 125 213.6 z" stroke-linecap="round" />
</g>
</g>
</g>
		<g transform="matrix(1.5356499086158757 0 0 1.5356499086158757 -1.737981138095904 13.928051935681566)"  >
<g style=""  paint-order="stroke"   >
		<g transform="matrix(1 0 0 1 0.009999173439226183 1.421085e-14)"  >
<path style="stroke: none; stroke-width: 1; stroke-dasharray: none; stroke-linecap: butt; stroke-dashoffset: 0; stroke-linejoin: miter; stroke-miterlimit: 4; fill: rgb(255,173,212); fill-rule: nonzero; opacity: 1;"  paint-order="stroke"  transform=" translate(-125.00999917343923, -108.275)" d="M 226.14 108.27 C 226.14 112.08999999999999 225.91 115.86 225.48999999999998 119.57 L 223.26 119.57 C 223.67999999999998 115.86 223.92999999999998 112.08999999999999 223.92999999999998 108.27 C 223.92999999999998 53.72 179.54999999999998 9.349999999999994 125.00999999999998 9.349999999999994 C 70.46999999999997 9.349999999999994 26.089999999999975 53.73 26.089999999999975 108.27 C 26.089999999999975 112.08999999999999 26.329999999999973 115.86 26.759999999999977 119.57 L 24.529999999999976 119.57 C 24.119999999999976 115.86 23.879999999999978 112.08999999999999 23.879999999999978 108.27 C 23.87 52.51 69.23 7.14 125 7.14 C 180.76999999999998 7.14 226.14 52.51 226.14 108.27 z M 125 209.41 C 156.4 209.41 184.5 195.03 203.06 172.51 L 200.14000000000001 172.51 C 181.98000000000002 193.72 155.04000000000002 207.2 125.00000000000001 207.2 C 94.96000000000001 207.2 68.02000000000001 193.72 49.860000000000014 172.51 L 46.94000000000001 172.51 C 65.5 195.03 93.6 209.41 125 209.41 z M 154.55 172.5 L 148.83 172.5 C 141.4 175.26 133.37 176.78 125.00000000000001 176.78 C 116.62000000000002 176.78 108.59000000000002 175.26 101.17000000000002 172.5 L 95.45000000000002 172.5 C 104.45000000000002 176.66 114.46000000000002 178.99 125.00000000000001 178.99 C 135.55 179 145.55 176.66 154.55 172.5 z M 125 37.55 C 86 37.55 54.269999999999996 69.28 54.269999999999996 108.28 C 54.269999999999996 112.13 54.589999999999996 115.9 55.17999999999999 119.58 L 57.42999999999999 119.58 C 56.81999999999999 115.89999999999999 56.47999999999999 112.13 56.47999999999999 108.28 C 56.47999999999999 70.5 87.21999999999998 39.769999999999996 124.99 39.769999999999996 C 162.76999999999998 39.769999999999996 193.5 70.50999999999999 193.5 108.28 C 193.5 112.13 193.16 115.9 192.55 119.58 L 194.8 119.58 C 195.39000000000001 115.89999999999999 195.71 112.12 195.71 108.28 C 195.73 69.28 164 37.55 125 37.55 z" stroke-linecap="round" />
</g>
		<g transform="matrix(1 0 0 1 0 0)"  >
<path style="stroke: none; stroke-width: 1; stroke-dasharray: none; stroke-linecap: butt; stroke-dashoffset: 0; stroke-linejoin: miter; stroke-miterlimit: 4; fill: rgb(54,182,254); fill-rule: nonzero; opacity: 1;"  paint-order="stroke"  transform=" translate(-125, -108.27499999999999)" d="M 249.01 122.53 L 250 122.53 L 250 119.58 L 232.68 119.58 C 233.07 115.86 233.27 112.09 233.27 108.28 C 233.27 48.57 184.7 0 125 0 C 65.30000000000001 0 16.73 48.57 16.73 108.27 C 16.73 112.08999999999999 16.93 115.86 17.32 119.57 L 0 119.57 L 0 122.52 L 0.99 122.52 L 249.01 122.52 z M 63.72 108.27 C 63.72 74.47999999999999 91.21 46.989999999999995 125 46.989999999999995 C 158.79000000000002 46.989999999999995 186.28 74.47999999999999 186.28 108.27 C 186.28 112.13 185.9 115.91 185.22 119.57 L 64.78 119.57 C 64.09 115.91 63.72 112.14 63.72 108.27 z M 19.68 108.27 C 19.68 50.2 66.92 2.95 125 2.95 C 183.07999999999998 2.95 230.32 50.2 230.32 108.27 C 230.32 112.08999999999999 230.1 115.86 229.70999999999998 119.57 L 225.48999999999998 119.57 L 223.26 119.57 L 194.81 119.57 L 192.56 119.57 L 188.21 119.57 C 188.87 115.89999999999999 189.23000000000002 112.11999999999999 189.23000000000002 108.27 C 189.23000000000002 72.85 160.42000000000002 44.03999999999999 125.00000000000001 44.03999999999999 C 89.58000000000001 44.03999999999999 60.77000000000001 72.85 60.77000000000001 108.27 C 60.77000000000001 112.13 61.13000000000001 115.89999999999999 61.79000000000001 119.57 L 57.44000000000001 119.57 L 55.19000000000001 119.57 L 26.74 119.57 L 24.509999999999998 119.57 L 20.29 119.57 C 19.89 115.86 19.68 112.09 19.68 108.27 z M 0.99 169.56 L 0 169.56 L 0 172.51 L 37.9 172.51 C 57.64 199.2 89.33 216.54999999999998 125 216.54999999999998 C 160.67000000000002 216.54999999999998 192.36 199.2 212.1 172.51 L 250 172.51 L 250 169.56 L 249.01 169.56 L 0.99 169.56 z M 125 213.6 C 91.09 213.6 60.89 197.47 41.61 172.51 L 46.94 172.51 L 49.86 172.51 L 95.45 172.51 L 101.17 172.51 L 148.84 172.51 L 154.56 172.51 L 200.15 172.51 L 203.07 172.51 L 208.4 172.51 C 189.11 197.47 158.91 213.6 125 213.6 z" stroke-linecap="round" />
</g>
</g>
</g>
		<g transform="matrix(1.650338722883529 0 0 1.0356491756128852 0.21750213325623236 129.0511246252062)"  >
<g style=""  paint-order="stroke"   >
		<g transform="matrix(1 0 0 1 0 0)"  >
<polygon style="stroke: none; stroke-width: 1; stroke-dasharray: none; stroke-linecap: butt; stroke-dashoffset: 0; stroke-linejoin: miter; stroke-miterlimit: 4; fill: rgb(255,173,212); fill-rule: nonzero; opacity: 1;"  paint-order="stroke"  points="100,21 -100,21 -88.78999999999999,0 -100,-21 100,-21 88.78999999999999,0 100,21 " />
</g>
</g>
</g>
		<g transform="matrix(1.650338722883529 0 0 1.0356491756128852 -0.2677685048823264 122.9463581081528)"  >
<g style=""  paint-order="stroke"   >
		<g transform="matrix(1 0 0 1 0 0)"  >
<polygon style="stroke: none; stroke-width: 1; stroke-dasharray: none; stroke-linecap: butt; stroke-dashoffset: 0; stroke-linejoin: miter; stroke-miterlimit: 4; fill: rgb(54,182,254); fill-rule: nonzero; opacity: 1;"  paint-order="stroke"  points="100,21 -100,21 -88.78999999999999,0 -100,-21 100,-21 88.78999999999999,0 100,21 " />
</g>
</g>
</g>
		<g transform="matrix(0.264941759577249 0.24706218775364194 -0.2470621877536419 0.26494175957724897 -108.30715405672686 14.569414937359369)"  >
<g style=""  paint-order="stroke"   >
		<g transform="matrix(1 0 0 1 0 0)"  >
<path style="stroke: none; stroke-width: 1; stroke-dasharray: none; stroke-linecap: butt; stroke-dashoffset: 0; stroke-linejoin: miter; stroke-miterlimit: 4; fill: rgb(54,182,254); fill-rule: nonzero; opacity: 1;"  paint-order="stroke"  transform=" translate(154.999973350061, -397.0000195745405)" d="M -29.99997 346.84702 C -40.31094 345.4043 -53.16268 346.22524999999996 -63.44682 348.46810999999997 C -136.54865999999998 364.41071 -156.12767000000002 454.35723999999993 -229.9422 454.33120999999994 C -204.15176000000002 450.19650999999993 -183.78893000000002 433.31951999999995 -166.77112 414.5037899999999 C -151.38707 397.49267999999995 -137.68411 378.25866999999994 -118.17394999999999 365.6478899999999 C -149.34348 383.4782099999999 -165.92550999999997 406.5480099999999 -184.25916 421.87218999999993 C -202.48955 437.1100399999999 -217.40232 444.61144999999993 -228.56069000000002 448.1894499999999 C -247.68380000000002 454.3213799999999 -268.53989 444.9966099999999 -276.19224 426.4295599999999 C -282.34809 411.4933699999999 -281.04093 393.0406099999999 -272.26371 377.12495999999993 C -278.8921 390.0753399999999 -278.81336 408.52259999999995 -266.66395 418.3187199999999 C -251.06666 430.8935199999999 -227.37643 419.9714899999999 -212.42747 411.57582999999994 C -182.13154 394.55296999999996 -153.93054 373.54008999999996 -123.34112999999999 356.8977299999999 C -93.52942 340.67847 -60.33369 333.03015 -29.99997 346.84702 z" stroke-linecap="round" />
</g>
</g>
</g>
		<g transform="matrix(-0.27258889281104587 0.25419325485986205 0.254193254859862 0.2725888928110458 106.95062729642893 15.106728609347186)"  >
<g style=""  paint-order="stroke"   >
		<g transform="matrix(1 0 0 1 0 0)"  >
<path style="stroke: none; stroke-width: 1; stroke-dasharray: none; stroke-linecap: butt; stroke-dashoffset: 0; stroke-linejoin: miter; stroke-miterlimit: 4; fill: rgb(54,182,254); fill-rule: nonzero; opacity: 1;"  paint-order="stroke"  transform=" translate(154.999973350061, -397.0000195745405)" d="M -29.99997 346.84702 C -40.31094 345.4043 -53.16268 346.22524999999996 -63.44682 348.46810999999997 C -136.54865999999998 364.41071 -156.12767000000002 454.35723999999993 -229.9422 454.33120999999994 C -204.15176000000002 450.19650999999993 -183.78893000000002 433.31951999999995 -166.77112 414.5037899999999 C -151.38707 397.49267999999995 -137.68411 378.25866999999994 -118.17394999999999 365.6478899999999 C -149.34348 383.4782099999999 -165.92550999999997 406.5480099999999 -184.25916 421.87218999999993 C -202.48955 437.1100399999999 -217.40232 444.61144999999993 -228.56069000000002 448.1894499999999 C -247.68380000000002 454.3213799999999 -268.53989 444.9966099999999 -276.19224 426.4295599999999 C -282.34809 411.4933699999999 -281.04093 393.0406099999999 -272.26371 377.12495999999993 C -278.8921 390.0753399999999 -278.81336 408.52259999999995 -266.66395 418.3187199999999 C -251.06666 430.8935199999999 -227.37643 419.9714899999999 -212.42747 411.57582999999994 C -182.13154 394.55296999999996 -153.93054 373.54008999999996 -123.34112999999999 356.8977299999999 C -93.52942 340.67847 -60.33369 333.03015 -29.99997 346.84702 z" stroke-linecap="round" />
</g>
</g>
</g>
		<g transform="matrix(0.6947942217956934 0.23923683611836138 -0.2392368361183611 0.6947942217956934 47.488149773993655 -56.58882214746498)"  >
<g style=""  paint-order="stroke"   >
		<g transform="matrix(1 0 0 1 0 0)"  >
<path style="stroke: none; stroke-width: 1; stroke-dasharray: none; stroke-linecap: butt; stroke-dashoffset: 0; stroke-linejoin: miter; stroke-miterlimit: 4; fill: rgb(120,60,40); fill-rule: nonzero; opacity: 1;"  paint-order="stroke"  transform=" translate(-192.23405000000002, -1440.7446299999997)" d="M 242.35275 1417.83594 C 257.21554 1403.95508 265.67212 1384.59644 265.67212 1364.18164 C 265.67212 1323.68872 232.72797 1290.74463 192.23404 1290.74463 C 151.74011 1290.74463 118.79598 1323.6887199999999 118.79598 1364.18164 C 118.79598 1384.59021 127.2474 1403.94372 142.10299 1417.82458 C 138.46243 1419.2718499999999 135.13888 1420.99682 133.17193 1423.3508299999999 C 131.41186 1425.4556899999998 130.52462 1428.4251699999998 130.85606 1431.1022899999998 C 131.12675000000002 1433.2925999999998 132.18794000000003 1435.1618599999997 133.84303000000003 1436.3649899999998 C 135.50705000000002 1437.57397 137.39552000000003 1437.9280999999999 139.23008000000002 1438.0435799999998 L 187.58686 1587.1812799999998 C 188.30015 1589.3458299999998 190.12299000000002 1590.7446299999997 192.22993 1590.7446299999997 C 194.3379 1590.7446299999997 196.16075999999998 1589.3458299999998 196.87713 1587.1719999999998 L 245.67091 1436.6826199999998 C 245.8473 1436.6868899999997 246.02214999999998 1436.70374 246.19917999999998 1436.7016599999997 C 249.91796 1436.6779799999997 254.41899999999998 1434.7840599999997 255.51620999999997 1430.6802999999998 C 256.21405999999996 1428.0679999999998 255.26712999999998 1425.0316199999997 253.04594999999998 1422.7579399999997 C 250.4079 1420.05505 245.80907 1418.59351 242.35275 1417.83594 z" stroke-linecap="round" />
</g>
		<g transform="matrix(1 0 0 1 0.328329999999994 69.47370573282569)"  >
<path style="stroke: none; stroke-width: 1; stroke-dasharray: none; stroke-linecap: butt; stroke-dashoffset: 0; stroke-linejoin: miter; stroke-miterlimit: 4; fill: rgb(255,178,122); fill-rule: nonzero; opacity: 1;"  paint-order="stroke"  transform=" translate(-192.56238000000002, -1510.2183357328254)" d="M 178.28833 1452.40735 C 179.47716 1453.30701 181.00255 1453.63635 182.58557 1453.33789 C 184.2249 1453.02685 185.79043 1452.0509 186.82762 1450.72937 L 191.02014 1457.46606 L 184.01132 1468.72924 L 172.75789 1450.63818 C 172.92096 1447.78137 173.32117 1445.02075 174.27106 1442.37292 C 174.67247 1441.2572 174.95552 1441.09558 175.01009000000002 1441.07397 C 175.21593000000001 1441.03381 175.78205000000003 1441.45996 175.96526000000003 1442.04565 C 176.21537000000004 1442.84436 176.12787000000003 1443.86853 176.03525000000002 1444.95129 C 176.00025000000002 1445.35791 175.96526000000003 1445.76342 175.94570000000002 1446.16589 C 175.80263 1448.98193 176.61267 1451.14038 178.28833 1452.40735 z M 229.51454 1444.26892 C 229.65968 1443.35486 229.71011000000001 1442.45422 229.75848000000002 1441.5835 C 229.78260000000003 1441.1502699999999 229.80737000000002 1440.7343799999999 229.84051000000002 1440.33448 L 232.24554000000003 1444.20557 L 225.23461000000003 1455.47522 L 222.27157000000003 1450.71106 C 223.48387000000002 1450.92688 224.73489000000004 1450.69019 225.86266000000003 1450.00403 C 227.70508 1448.88525 229.13885 1446.63416 229.51454 1444.26892 z M 230.56621 1437.50842 C 230.58237000000003 1437.4814399999998 230.58977000000002 1437.44861 230.60662000000002 1437.42212 C 231.76868000000002 1435.60132 234.59714000000002 1435.17517 236.85641 1435.3862299999998 C 237.12358 1435.4111299999997 237.39485000000002 1435.4604499999998 237.66329000000002 1435.4969499999997 L 233.48699000000002 1442.2100799999998 L 230.56621 1437.50842 z M 231.7495 1465.9502 L 226.47612 1457.47144 L 233.48648 1446.20301 L 236.06282 1450.34986 C 236.20517999999998 1450.57874 236.42198 1450.72999 236.66161 1450.8003 L 231.7495 1465.9502 z M 220.45772 1500.77625 L 218.24034 1497.21326 L 225.25352 1485.94165 C 225.25712000000001 1485.94556 225.26002 1485.95019 225.26362 1485.95398 L 220.45772 1500.77625 z M 214.80016 1518.22534 L 209.98397 1510.48279 L 216.99851 1499.20923 L 219.60683 1503.40039 L 214.80016 1518.22534 z M 203.50465 1553.06287 L 201.74202 1550.22986 L 207.34064999999998 1541.23181 L 203.50465 1553.06287 z M 197.8532 1570.49292 L 193.49415 1563.4856 L 200.50108999999998 1552.22425 L 202.65440999999998 1555.68519 L 197.8532 1570.49292 z M 181.82442 1555.74084 L 184.00972000000002 1552.2286299999998 L 191.01236000000003 1563.4854699999999 L 186.62293000000003 1570.5400399999999 L 181.82442 1555.74084 z M 177.06677 1541.06775 L 182.76891999999998 1550.23401 L 180.97418 1553.11865 L 177.06677 1541.06775 z M 164.8756 1503.46875 L 167.52116999999998 1499.21741 L 174.53481 1510.48999 L 169.68267 1518.29443 L 164.8756 1503.46875 z M 159.21489 1486.0105 C 159.23386 1485.99243 159.24782 1485.96826 159.26558 1485.9486100000001 L 166.2803 1497.2230200000001 L 164.02542 1500.84668 L 159.21489 1486.0105 z M 172.68288 1457.95007 C 172.66642000000002 1456.7724600000001 172.65361000000001 1455.61181 172.65509 1454.4626400000002 L 182.76994 1470.72411 L 175.76711999999998 1481.97765 L 170.87365999999997 1474.11071 C 171.40430999999998 1473.1079 171.80477999999997 1471.9204 172.04574999999997 1470.57934 C 172.80228 1466.37476 172.74155 1462.09192 172.68288 1457.95007 z M 184.01068 1472.71863 L 191.01608000000002 1483.98108 L 184.01634 1495.23962 L 177.00778000000003 1483.9722900000002 L 184.01068 1472.71863 z M 223.99336 1457.47046 L 216.99277999999998 1468.72351 L 209.98621999999997 1457.46143 L 216.98525999999998 1446.20362 L 223.99336 1457.47046 z M 215.75192 1470.71814 L 208.75302000000002 1481.96851 L 201.74800000000002 1470.71253 L 208.74580000000003 1459.45679 L 215.75192 1470.71814 z M 192.25694 1534.98499 L 185.25462 1523.73047 L 192.2552 1512.47778 L 199.25708 1523.73437 L 192.25694 1534.98499 z M 200.4978 1525.729 L 207.50026000000003 1536.98657 L 200.50108000000003 1548.23535 L 193.49780000000004 1536.97937 L 200.4978 1525.729 z M 191.01602 1536.97937 L 184.0099 1548.23962 L 177.00861999999998 1536.98498 L 184.01376 1525.72509 L 191.01602 1536.97937 z M 199.2579 1497.23132 L 192.2561 1508.4863200000002 L 185.25816 1497.2359500000002 L 192.25772 1485.9772800000003 L 199.2579 1497.23132 z M 193.49876 1483.9812 L 200.50656 1472.7093499999999 L 207.51118 1483.9645999999998 L 200.49948 1495.2355999999997 L 193.49876 1483.9812 z M 191.01422 1510.48267 L 184.0135 1521.73584 L 177.0173 1510.49109 L 184.0166 1499.2330299999999 L 191.01422 1510.48267 z M 193.49716 1510.48145 L 200.4991 1499.22669 L 207.50134 1510.48414 L 200.4991 1521.73817 L 193.49716 1510.48145 z M 201.74066 1497.23096 L 208.75281999999999 1485.95972 L 215.75745999999998 1497.21497 L 208.74324 1508.4881599999999 L 201.74066 1497.23096 z M 209.99464 1483.96362 L 216.99342000000001 1472.71374 L 223.99742 1483.97167 L 216.99928 1495.21911 L 209.99464 1483.96362 z M 200.5061 1468.71704 L 193.50308 1457.46435 L 200.50546 1446.2114199999999 L 207.50418 1457.46105 L 200.5061 1468.71704 z M 199.26466 1470.71375 L 192.25708 1481.98499 L 185.25206 1470.7237599999999 L 192.26112 1459.46021 L 199.26466 1470.71375 z M 182.77484 1497.23657 L 175.77528 1508.49487 L 168.76216000000002 1497.22302 L 175.7657 1485.9683799999998 L 182.77484 1497.23657 z M 175.77689 1512.48633 L 182.77271000000002 1523.73035 L 175.76783 1534.99036 L 174.36504 1532.73548 L 170.53387999999998 1520.91956 L 175.77689 1512.48633 z M 185.2507 1550.23413 L 192.25688 1538.97375 L 199.26015999999998 1550.2298500000002 L 192.25333999999998 1561.49096 L 185.2507 1550.23413 z M 210.04123 1532.90283 L 208.74228000000002 1534.99035 L 201.73982 1523.7329 L 208.74208000000002 1512.47875 L 213.94914000000003 1520.84997 L 210.04123 1532.90283 z M 227.98349 1477.56531 L 225.23834 1481.9773 L 218.23435999999998 1470.71924 L 225.23494 1459.4665499999999 L 230.59015 1468.0761699999998 C 230.68247 1468.2246099999998 230.80765 1468.3382499999998 230.94814 1468.4216299999998 L 227.98349 1477.56531 z M 209.69867 1434.35083 C 209.72311 1434.46875 209.75932 1434.58618 209.82649 1434.69458 L 215.74394 1444.20801 L 208.74466 1455.4658200000001 L 201.74652 1444.2171600000001 L 207.46416 1435.0288100000002 C 207.95005 1434.8973400000002 208.44133 1434.7473200000002 208.9372 1434.5885000000003 C 209.19522 1434.50623 209.44861 1434.42676 209.69867 1434.35083 z M 211.84735 1433.95044 C 212.1232 1433.9641100000001 212.36952 1434.02136 212.57466 1434.14185 C 213.17061999999999 1434.4917 213.57718 1435.4747399999999 213.97550999999999 1436.53699 L 214.76125 1438.63562 L 211.84735 1433.95044 z M 200.50566 1442.22278 L 195.9792 1434.94715 C 196.28360999999998 1434.95191 196.57162 1434.96339 196.82977 1434.98072 C 197.65114 1435.03419 198.4756 1435.12476 199.30107 1435.21436 C 201.06358 1435.40674 202.86856 1435.5951 204.70357 1435.47669 L 200.50566 1442.22278 z M 193.60414 1435.11853 L 199.26466 1444.21704 L 192.26208 1455.47021 L 187.98208 1448.59289 C 188.73969 1446.56506 188.76646 1444.3973299999998 188.77874 1442.3801199999998 C 188.7911 1440.4122199999997 188.88476 1438.38134 189.85845 1437.0607799999998 C 190.71373 1435.90002 192.15646 1435.35889 193.60414 1435.11853 z M 169.54126 1475.96167 L 174.52501999999998 1483.9737499999999 L 167.5213 1495.22875 L 160.52098 1483.97741 L 164.50467 1477.57641 C 164.86351 1477.65197 165.22632000000002 1477.7039699999998 165.59628 1477.7039699999998 C 165.64055000000002 1477.7039699999998 165.68583 1477.7029899999998 165.73112 1477.7018899999998 C 167.18658 1477.66455 168.48643 1477.04407 169.54126 1475.96167 z M 159.28018 1481.98315 L 156.41691 1477.38122 L 153.52006 1468.44702 C 153.67716000000001 1468.3627900000001 153.81521 1468.23828 153.91601 1468.07617 L 156.47172 1463.9675300000001 C 157.02502 1467.2271700000001 157.89367000000001 1470.4654500000001 159.55956 1473.4118700000001 C 160.40529 1474.9069900000002 161.42049 1476.0234400000002 162.53823 1476.7480500000001 L 159.28018 1481.98315 z M 152.72566 1465.99695 L 147.80641 1450.82544 C 148.05653 1450.7590300000002 148.28355 1450.6024200000002 148.431 1450.36536 L 152.27020000000002 1444.2013 C 152.61880000000002 1444.78406 152.92302 1445.37134 153.17494000000002 1445.9445899999998 C 154.81253 1449.6705399999998 155.27159000000003 1453.9780399999997 155.71623000000002 1458.1435599999998 L 155.81401000000002 1459.0585999999998 C 155.87372000000002 1459.6112099999998 155.93715000000003 1460.16798 156.00436000000002 1460.72608 L 152.72566 1465.99695 z M 147.07156 1448.55908 L 143.71644 1438.21142 C 143.96591 1438.2336400000002 144.22605000000001 1438.2429100000002 144.46414000000001 1438.28051 C 147.13911000000002 1438.70263 149.33656000000002 1440.34777 150.95537000000002 1442.32531 L 147.07156 1448.55908 z M 192.87013 1585.86169 C 192.59428 1586.69653 191.86348999999998 1586.6892 191.59382 1585.87097 L 187.47316999999998 1573.1623499999998 L 192.25313999999997 1565.4800999999998 L 197.00293999999997 1573.1153499999998 L 192.87013 1585.86169 z M 237.40295 1448.51379 L 234.72784000000001 1444.20752 L 239.91297 1435.8731699999998 C 240.09334 1435.90845 240.26646 1435.9386 240.44961 1435.9749799999997 C 240.76515 1436.0373599999998 241.08724 1436.0988799999998 241.40832 1436.1603999999998 L 237.40295 1448.51379 z" stroke-linecap="round" />
</g>
		<g transform="matrix(1 0 0 1 -0.00003000000006636583 -56.52023236638411)"  >
<path style="stroke: none; stroke-width: 1; stroke-dasharray: none; stroke-linecap: butt; stroke-dashoffset: 0; stroke-linejoin: miter; stroke-miterlimit: 4; fill: rgb(55,182,255); fill-rule: nonzero; opacity: 1;"  paint-order="stroke"  transform=" translate(-192.23401999999996, -1384.2243976336156)" d="M 237.49969 1421.30359 C 227.18737 1420.27637 218.81005 1421.27271 206.96098999999998 1423.47327 C 205.81847 1423.6792 204.71612 1422.9298099999999 204.50303999999997 1421.78528 C 204.29099999999997 1420.64075 205.04649999999998 1419.54041 206.19108999999997 1419.3273900000002 C 215.85392999999996 1417.5333200000002 225.48802999999998 1416.0089100000002 236.93461999999997 1417.0166000000002 C 236.95005999999998 1417.0022000000001 236.96549999999996 1416.98889 236.98197999999996 1416.97449 C 252.53538999999995 1403.77906 261.45615999999995 1384.53675 261.45615999999995 1364.18164 C 261.45615999999995 1326.01294 230.40281999999996 1294.96057 192.23404999999997 1294.96057 C 154.06522999999999 1294.96057 123.01187999999996 1326.01294 123.01187999999996 1364.18164 C 123.01187999999996 1384.17224 131.63205999999997 1403.07532 146.67288999999997 1416.2456 C 154.84341999999998 1414.06115 159.35867999999996 1415.02929 163.72299999999996 1415.97497 C 164.86136999999997 1416.2220399999999 165.61789999999996 1417.35119 165.37082999999996 1418.4885199999999 C 165.12485999999996 1419.62585 164.04617999999996 1420.3566799999999 162.89853999999997 1420.1105899999998 C 158.60397999999998 1419.1782199999998 154.60593999999998 1418.3146899999997 146.76480999999995 1420.5911799999997 C 144.26755999999995 1421.4666699999996 138.55545999999995 1423.4839999999997 136.40591999999995 1426.0546799999997 C 135.38687999999996 1427.2744099999998 134.85061999999996 1429.0519899999997 135.04000999999994 1430.5845899999997 C 135.12856999999994 1431.3061499999997 135.42397999999994 1432.3024899999998 136.32149999999993 1432.9539699999998 C 137.45980999999992 1433.78075 139.06929999999994 1433.8626599999998 140.93257999999992 1433.8874399999997 C 140.94343999999992 1433.8882899999996 140.95454999999993 1433.8869499999998 140.9654199999999 1433.8879299999996 C 141.11659999999992 1433.8898799999997 141.2660799999999 1433.8920799999996 141.4205599999999 1433.8936699999997 C 142.6247799999999 1433.9061199999996 143.8691699999999 1433.9194299999997 145.12081999999992 1434.1160799999998 C 150.06649999999993 1434.8962299999998 154.63131999999993 1438.77868 157.03469999999993 1444.2482799999998 C 158.93478999999994 1448.57335 159.42983999999993 1453.2112899999997 159.90847999999994 1457.6968899999997 L 160.00521999999995 1458.6056999999996 C 160.49923999999996 1463.1839499999996 161.11788999999996 1467.6015499999996 163.22994999999995 1471.3368999999996 C 163.82589999999993 1472.3908599999995 164.80990999999995 1473.5055999999995 165.62404999999995 1473.4880199999996 C 166.68831999999995 1473.4603099999995 167.57350999999994 1471.6281599999995 167.89565999999996 1469.8331099999996 C 168.58010999999996 1466.0278099999996 168.52559999999997 1462.1330399999995 168.46792999999997 1458.0097499999995 C 168.38870999999997 1452.3580199999994 168.30636999999996 1446.5136599999994 170.30313999999996 1440.9483499999994 C 170.76120999999995 1439.6762599999995 171.58359999999996 1437.8996399999994 173.44968999999995 1437.1575799999994 C 174.57669999999996 1436.7077499999994 175.84067999999994 1436.7664699999993 177.00376999999995 1437.3212799999994 C 178.38401999999994 1437.9788699999995 179.52756999999994 1439.3077299999995 179.98972999999995 1440.7888099999993 C 180.48685999999995 1442.3780399999994 180.35306999999995 1443.9363899999994 180.23569999999995 1445.3115199999993 C 180.20481999999996 1445.6686999999993 180.17392999999996 1446.0247799999993 180.15543999999994 1446.3798799999993 C 180.08957999999996 1447.6984799999993 180.33554999999996 1448.6700399999993 180.83268999999993 1449.0457699999993 C 181.06528999999992 1449.2227699999992 181.39054999999993 1449.2731899999992 181.79917999999992 1449.1960399999994 C 182.52994999999993 1449.0571199999993 183.27927999999991 1448.5403999999994 183.66422999999992 1447.9103999999993 C 184.53708999999992 1446.4808299999993 184.5494199999999 1444.5179399999993 184.56278999999992 1442.4398199999994 C 184.57926999999992 1439.8089599999994 184.74088999999992 1436.8981899999994 186.4639099999999 1434.5596899999994 C 188.4946699999999 1431.8043199999993 192.2597499999999 1430.4589799999994 197.1035599999999 1430.7729499999994 C 197.9856399999999 1430.8305699999994 198.87186999999992 1430.9262699999992 199.7590799999999 1431.0230699999993 C 202.0317199999999 1431.2722199999994 204.1777799999999 1431.5047599999994 206.1282799999999 1431.0251499999993 C 206.6285199999999 1430.9025899999992 207.1400599999999 1430.7369399999993 207.6536699999999 1430.5732499999992 C 209.7214799999999 1429.9124799999993 212.2926499999999 1429.0921699999992 214.70627999999988 1430.5042799999992 C 216.64340999999988 1431.6396599999991 217.41330999999988 1433.6971499999993 217.9238099999999 1435.0588499999992 L 221.2617599999999 1443.9744999999991 C 221.5417299999999 1444.7237699999991 222.1243099999999 1446.2811399999991 222.8982999999999 1446.538459999999 C 223.07126999999988 1446.5981499999991 223.3017999999999 1446.6269599999991 223.67441999999988 1446.401499999999 C 224.45151999999987 1445.929089999999 225.17197999999988 1444.7279199999991 225.35007999999988 1443.608039999999 C 225.46225999999987 1442.906139999999 225.50443999999987 1442.149539999999 225.54868999999988 1441.347789999999 C 225.6588599999999 1439.3787999999988 225.78336999999988 1437.1462499999989 227.05143999999987 1435.1566299999988 C 228.90415999999988 1432.2500099999988 232.71867999999986 1430.766739999999 237.24650999999986 1431.1888599999988 C 238.63291999999987 1431.317519999999 239.97306999999986 1431.581929999999 241.26786999999985 1431.8382699999988 C 242.34537999999984 1432.0524999999989 243.38493999999986 1432.2390299999988 244.40311999999986 1432.3579199999988 C 244.40811999999985 1432.3584099999987 244.41324999999986 1432.359139999999 244.41831999999985 1432.3596299999988 C 245.00944999999984 1432.4283599999987 245.59525999999985 1432.4799899999987 246.17240999999984 1432.4857299999987 C 248.35654999999986 1432.4722999999988 250.94517999999985 1431.4533799999988 251.44230999999985 1429.5913199999986 C 251.75419999999986 1428.4272599999986 251.19938999999985 1426.9007699999986 250.02909999999986 1425.7027699999987 C 247.79352 1423.4126 242.03369 1421.75647 237.49969 1421.30359 z M 230.02814 1348.77441 L 226.15290000000002 1353.69226 C 225.63312000000002 1354.35205 224.86121000000003 1354.6969000000001 224.08100000000002 1354.6969000000001 C 223.51075000000003 1354.6969000000001 222.93537 1354.51257 222.45264000000003 1354.13171 C 221.30915000000005 1353.2312000000002 221.11255000000003 1351.5739700000001 222.01319000000004 1350.4315100000001 L 225.88837000000004 1345.51366 C 226.78797000000003 1344.3710800000001 228.44513000000003 1344.17247 229.58869000000004 1345.07408 C 230.73218 1345.97473 230.92877 1347.63184 230.02814 1348.77441 z M 226.52759 1312.71558 C 227.87287 1312.16285 229.4137 1312.80823 229.96332 1314.15662 L 232.31006000000002 1319.89283 C 232.86176000000003 1321.23914 232.21643000000003 1322.77784 230.86908000000003 1323.3285 C 230.54279000000002 1323.4622900000002 230.20520000000002 1323.52613 229.87274000000002 1323.52613 C 228.83417000000003 1323.52613 227.85022000000004 1322.90858 227.43335000000002 1321.88758 L 225.08661 1316.15137 C 224.53491 1314.80505 225.18024 1313.26624 226.52759 1312.71558 z M 216.18335 1325.3418 C 217.25995 1324.36292 218.92737 1324.44226 219.90520999999998 1325.5187999999998 L 225.12053999999998 1331.2550099999999 C 226.09941999999998 1332.3316699999998 226.02013999999997 1333.99805 224.94353999999998 1334.9769299999998 C 224.43914999999998 1335.43591 223.80407 1335.6623499999998 223.17211999999998 1335.6623499999998 C 222.45574999999997 1335.6623499999998 221.74146 1335.37207 221.22161999999997 1334.7997999999998 L 216.00628999999998 1329.0637199999999 C 215.02747 1327.98706 215.10669 1326.32068 216.18335 1325.3418 z M 145.5603 1331.90344 C 144.59692 1330.81238 144.70086 1329.14709 145.79089000000002 1328.18359 C 146.88189000000003 1327.2192300000002 148.5473 1327.32312 149.51068 1328.41418 L 153.18213 1332.57043 C 154.14557 1333.66149 154.04157 1335.32678 152.9516 1336.29028 C 152.45032 1336.73278 151.82764 1336.94995 151.20801 1336.94995 C 150.47821 1336.94995 149.75257 1336.64941 149.23175 1336.05969 L 145.5603 1331.90344 z M 158.26782 1354.6969 L 150.18487 1354.6969 C 148.72949 1354.6969 147.54992 1353.51733 147.54992 1352.06189 C 147.54992 1350.60645 148.72949 1349.42688 150.18487 1349.42688 L 158.26782 1349.42688 C 159.7232 1349.42688 160.90277 1350.60645 160.90277 1352.06189 C 160.90277 1353.51733 159.72321 1354.6969 158.26782 1354.6969 z M 165.48718 1315.83643 C 164.0318 1315.83643 162.85223 1314.65686 162.85223 1313.20142 C 162.85223 1311.7461 164.0318 1310.56653 165.48718 1310.56653 L 173.57013 1310.56653 C 175.02551 1310.56653 176.20508 1311.7461 176.20508 1313.20142 C 176.20508 1314.65686 175.02551 1315.83643 173.57013 1315.83643 L 165.48718 1315.83643 z M 176.95953 1331.55139 L 173.08429 1336.47034 C 172.56451 1337.13013 171.79254 1337.4749800000002 171.01233000000002 1337.4749800000002 C 170.44214000000002 1337.4749800000002 169.86676000000003 1337.2906500000001 169.38403000000002 1336.9099200000003 C 168.24048000000002 1336.0092900000002 168.04388000000003 1334.3520600000004 168.94452 1333.2096000000004 L 172.81976 1328.2906500000004 C 173.71936 1327.1491700000004 175.37652 1326.9495900000004 176.52002 1327.8512000000003 C 177.66357 1328.75183 177.86017 1330.40894 176.95953 1331.55139 z M 190.12506 1351.23328 L 186.24982 1356.15223 C 185.73004 1356.8120199999998 184.95807 1357.15687 184.17786 1357.15687 C 183.60767 1357.15687 183.03229000000002 1356.97254 182.54956 1356.5918100000001 C 181.40601 1355.69118 181.20941000000002 1354.0339500000002 182.11005 1352.8914900000002 L 185.98529 1347.9725400000002 C 186.88488999999998 1346.8300800000002 188.54199 1346.6303800000003 189.68554999999998 1347.5330900000001 C 190.8291 1348.43372 191.0257 1350.09082 190.12506 1351.23328 z M 197.90637 1337.47498 L 189.82348000000002 1337.47498 C 188.36804 1337.47498 187.18853000000001 1336.29541 187.18853000000001 1334.83997 C 187.18853000000001 1333.38453 188.36803 1332.20508 189.82348000000002 1332.20508 L 197.90637 1332.20508 C 199.36181000000002 1332.20508 200.54138 1333.38452 200.54138 1334.83997 C 200.54138 1336.29542 199.36182 1337.47498 197.90637 1337.47498 z M 198.23987 1320.89636 C 198.17609 1320.90149 198.11328 1320.90356 198.0495 1320.90356 C 196.6795 1320.90356 195.52362 1319.84436 195.42481 1318.45593 L 194.904 1311.1676 C 194.80006 1309.71631 195.8921 1308.45544 197.34443 1308.35254 C 198.78027999999998 1308.23718 200.05659 1309.3396 200.15948999999998 1310.7929700000002 L 200.6803 1318.0813000000003 C 200.78424 1319.53259 199.6922 1320.79346 198.23987 1320.89636 z" stroke-linecap="round" />
</g>
</g>
</g>
		<g transform="matrix(0.697792471912626 -0.2678574338857181 0.26785743388571803 0.6977924719126258 -41.589856233480646 -56.737165920001615)"  >
<g style=""  paint-order="stroke"   >
		<g transform="matrix(1 0 0 1 0 0)"  >
<path style="stroke: none; stroke-width: 1; stroke-dasharray: none; stroke-linecap: butt; stroke-dashoffset: 0; stroke-linejoin: miter; stroke-miterlimit: 4; fill: rgb(120,60,40); fill-rule: nonzero; opacity: 1;"  paint-order="stroke"  transform=" translate(-192.23405000000002, -1440.7446299999997)" d="M 242.35275 1417.83594 C 257.21554 1403.95508 265.67212 1384.59644 265.67212 1364.18164 C 265.67212 1323.68872 232.72797 1290.74463 192.23404 1290.74463 C 151.74011 1290.74463 118.79598 1323.6887199999999 118.79598 1364.18164 C 118.79598 1384.59021 127.2474 1403.94372 142.10299 1417.82458 C 138.46243 1419.2718499999999 135.13888 1420.99682 133.17193 1423.3508299999999 C 131.41186 1425.4556899999998 130.52462 1428.4251699999998 130.85606 1431.1022899999998 C 131.12675000000002 1433.2925999999998 132.18794000000003 1435.1618599999997 133.84303000000003 1436.3649899999998 C 135.50705000000002 1437.57397 137.39552000000003 1437.9280999999999 139.23008000000002 1438.0435799999998 L 187.58686 1587.1812799999998 C 188.30015 1589.3458299999998 190.12299000000002 1590.7446299999997 192.22993 1590.7446299999997 C 194.3379 1590.7446299999997 196.16075999999998 1589.3458299999998 196.87713 1587.1719999999998 L 245.67091 1436.6826199999998 C 245.8473 1436.6868899999997 246.02214999999998 1436.70374 246.19917999999998 1436.7016599999997 C 249.91796 1436.6779799999997 254.41899999999998 1434.7840599999997 255.51620999999997 1430.6802999999998 C 256.21405999999996 1428.0679999999998 255.26712999999998 1425.0316199999997 253.04594999999998 1422.7579399999997 C 250.4079 1420.05505 245.80907 1418.59351 242.35275 1417.83594 z" stroke-linecap="round" />
</g>
		<g transform="matrix(1 0 0 1 0.328329999999994 69.47370573282569)"  >
<path style="stroke: none; stroke-width: 1; stroke-dasharray: none; stroke-linecap: butt; stroke-dashoffset: 0; stroke-linejoin: miter; stroke-miterlimit: 4; fill: rgb(255,178,122); fill-rule: nonzero; opacity: 1;"  paint-order="stroke"  transform=" translate(-192.56238000000002, -1510.2183357328254)" d="M 178.28833 1452.40735 C 179.47716 1453.30701 181.00255 1453.63635 182.58557 1453.33789 C 184.2249 1453.02685 185.79043 1452.0509 186.82762 1450.72937 L 191.02014 1457.46606 L 184.01132 1468.72924 L 172.75789 1450.63818 C 172.92096 1447.78137 173.32117 1445.02075 174.27106 1442.37292 C 174.67247 1441.2572 174.95552 1441.09558 175.01009000000002 1441.07397 C 175.21593000000001 1441.03381 175.78205000000003 1441.45996 175.96526000000003 1442.04565 C 176.21537000000004 1442.84436 176.12787000000003 1443.86853 176.03525000000002 1444.95129 C 176.00025000000002 1445.35791 175.96526000000003 1445.76342 175.94570000000002 1446.16589 C 175.80263 1448.98193 176.61267 1451.14038 178.28833 1452.40735 z M 229.51454 1444.26892 C 229.65968 1443.35486 229.71011000000001 1442.45422 229.75848000000002 1441.5835 C 229.78260000000003 1441.1502699999999 229.80737000000002 1440.7343799999999 229.84051000000002 1440.33448 L 232.24554000000003 1444.20557 L 225.23461000000003 1455.47522 L 222.27157000000003 1450.71106 C 223.48387000000002 1450.92688 224.73489000000004 1450.69019 225.86266000000003 1450.00403 C 227.70508 1448.88525 229.13885 1446.63416 229.51454 1444.26892 z M 230.56621 1437.50842 C 230.58237000000003 1437.4814399999998 230.58977000000002 1437.44861 230.60662000000002 1437.42212 C 231.76868000000002 1435.60132 234.59714000000002 1435.17517 236.85641 1435.3862299999998 C 237.12358 1435.4111299999997 237.39485000000002 1435.4604499999998 237.66329000000002 1435.4969499999997 L 233.48699000000002 1442.2100799999998 L 230.56621 1437.50842 z M 231.7495 1465.9502 L 226.47612 1457.47144 L 233.48648 1446.20301 L 236.06282 1450.34986 C 236.20517999999998 1450.57874 236.42198 1450.72999 236.66161 1450.8003 L 231.7495 1465.9502 z M 220.45772 1500.77625 L 218.24034 1497.21326 L 225.25352 1485.94165 C 225.25712000000001 1485.94556 225.26002 1485.95019 225.26362 1485.95398 L 220.45772 1500.77625 z M 214.80016 1518.22534 L 209.98397 1510.48279 L 216.99851 1499.20923 L 219.60683 1503.40039 L 214.80016 1518.22534 z M 203.50465 1553.06287 L 201.74202 1550.22986 L 207.34064999999998 1541.23181 L 203.50465 1553.06287 z M 197.8532 1570.49292 L 193.49415 1563.4856 L 200.50108999999998 1552.22425 L 202.65440999999998 1555.68519 L 197.8532 1570.49292 z M 181.82442 1555.74084 L 184.00972000000002 1552.2286299999998 L 191.01236000000003 1563.4854699999999 L 186.62293000000003 1570.5400399999999 L 181.82442 1555.74084 z M 177.06677 1541.06775 L 182.76891999999998 1550.23401 L 180.97418 1553.11865 L 177.06677 1541.06775 z M 164.8756 1503.46875 L 167.52116999999998 1499.21741 L 174.53481 1510.48999 L 169.68267 1518.29443 L 164.8756 1503.46875 z M 159.21489 1486.0105 C 159.23386 1485.99243 159.24782 1485.96826 159.26558 1485.9486100000001 L 166.2803 1497.2230200000001 L 164.02542 1500.84668 L 159.21489 1486.0105 z M 172.68288 1457.95007 C 172.66642000000002 1456.7724600000001 172.65361000000001 1455.61181 172.65509 1454.4626400000002 L 182.76994 1470.72411 L 175.76711999999998 1481.97765 L 170.87365999999997 1474.11071 C 171.40430999999998 1473.1079 171.80477999999997 1471.9204 172.04574999999997 1470.57934 C 172.80228 1466.37476 172.74155 1462.09192 172.68288 1457.95007 z M 184.01068 1472.71863 L 191.01608000000002 1483.98108 L 184.01634 1495.23962 L 177.00778000000003 1483.9722900000002 L 184.01068 1472.71863 z M 223.99336 1457.47046 L 216.99277999999998 1468.72351 L 209.98621999999997 1457.46143 L 216.98525999999998 1446.20362 L 223.99336 1457.47046 z M 215.75192 1470.71814 L 208.75302000000002 1481.96851 L 201.74800000000002 1470.71253 L 208.74580000000003 1459.45679 L 215.75192 1470.71814 z M 192.25694 1534.98499 L 185.25462 1523.73047 L 192.2552 1512.47778 L 199.25708 1523.73437 L 192.25694 1534.98499 z M 200.4978 1525.729 L 207.50026000000003 1536.98657 L 200.50108000000003 1548.23535 L 193.49780000000004 1536.97937 L 200.4978 1525.729 z M 191.01602 1536.97937 L 184.0099 1548.23962 L 177.00861999999998 1536.98498 L 184.01376 1525.72509 L 191.01602 1536.97937 z M 199.2579 1497.23132 L 192.2561 1508.4863200000002 L 185.25816 1497.2359500000002 L 192.25772 1485.9772800000003 L 199.2579 1497.23132 z M 193.49876 1483.9812 L 200.50656 1472.7093499999999 L 207.51118 1483.9645999999998 L 200.49948 1495.2355999999997 L 193.49876 1483.9812 z M 191.01422 1510.48267 L 184.0135 1521.73584 L 177.0173 1510.49109 L 184.0166 1499.2330299999999 L 191.01422 1510.48267 z M 193.49716 1510.48145 L 200.4991 1499.22669 L 207.50134 1510.48414 L 200.4991 1521.73817 L 193.49716 1510.48145 z M 201.74066 1497.23096 L 208.75281999999999 1485.95972 L 215.75745999999998 1497.21497 L 208.74324 1508.4881599999999 L 201.74066 1497.23096 z M 209.99464 1483.96362 L 216.99342000000001 1472.71374 L 223.99742 1483.97167 L 216.99928 1495.21911 L 209.99464 1483.96362 z M 200.5061 1468.71704 L 193.50308 1457.46435 L 200.50546 1446.2114199999999 L 207.50418 1457.46105 L 200.5061 1468.71704 z M 199.26466 1470.71375 L 192.25708 1481.98499 L 185.25206 1470.7237599999999 L 192.26112 1459.46021 L 199.26466 1470.71375 z M 182.77484 1497.23657 L 175.77528 1508.49487 L 168.76216000000002 1497.22302 L 175.7657 1485.9683799999998 L 182.77484 1497.23657 z M 175.77689 1512.48633 L 182.77271000000002 1523.73035 L 175.76783 1534.99036 L 174.36504 1532.73548 L 170.53387999999998 1520.91956 L 175.77689 1512.48633 z M 185.2507 1550.23413 L 192.25688 1538.97375 L 199.26015999999998 1550.2298500000002 L 192.25333999999998 1561.49096 L 185.2507 1550.23413 z M 210.04123 1532.90283 L 208.74228000000002 1534.99035 L 201.73982 1523.7329 L 208.74208000000002 1512.47875 L 213.94914000000003 1520.84997 L 210.04123 1532.90283 z M 227.98349 1477.56531 L 225.23834 1481.9773 L 218.23435999999998 1470.71924 L 225.23494 1459.4665499999999 L 230.59015 1468.0761699999998 C 230.68247 1468.2246099999998 230.80765 1468.3382499999998 230.94814 1468.4216299999998 L 227.98349 1477.56531 z M 209.69867 1434.35083 C 209.72311 1434.46875 209.75932 1434.58618 209.82649 1434.69458 L 215.74394 1444.20801 L 208.74466 1455.4658200000001 L 201.74652 1444.2171600000001 L 207.46416 1435.0288100000002 C 207.95005 1434.8973400000002 208.44133 1434.7473200000002 208.9372 1434.5885000000003 C 209.19522 1434.50623 209.44861 1434.42676 209.69867 1434.35083 z M 211.84735 1433.95044 C 212.1232 1433.9641100000001 212.36952 1434.02136 212.57466 1434.14185 C 213.17061999999999 1434.4917 213.57718 1435.4747399999999 213.97550999999999 1436.53699 L 214.76125 1438.63562 L 211.84735 1433.95044 z M 200.50566 1442.22278 L 195.9792 1434.94715 C 196.28360999999998 1434.95191 196.57162 1434.96339 196.82977 1434.98072 C 197.65114 1435.03419 198.4756 1435.12476 199.30107 1435.21436 C 201.06358 1435.40674 202.86856 1435.5951 204.70357 1435.47669 L 200.50566 1442.22278 z M 193.60414 1435.11853 L 199.26466 1444.21704 L 192.26208 1455.47021 L 187.98208 1448.59289 C 188.73969 1446.56506 188.76646 1444.3973299999998 188.77874 1442.3801199999998 C 188.7911 1440.4122199999997 188.88476 1438.38134 189.85845 1437.0607799999998 C 190.71373 1435.90002 192.15646 1435.35889 193.60414 1435.11853 z M 169.54126 1475.96167 L 174.52501999999998 1483.9737499999999 L 167.5213 1495.22875 L 160.52098 1483.97741 L 164.50467 1477.57641 C 164.86351 1477.65197 165.22632000000002 1477.7039699999998 165.59628 1477.7039699999998 C 165.64055000000002 1477.7039699999998 165.68583 1477.7029899999998 165.73112 1477.7018899999998 C 167.18658 1477.66455 168.48643 1477.04407 169.54126 1475.96167 z M 159.28018 1481.98315 L 156.41691 1477.38122 L 153.52006 1468.44702 C 153.67716000000001 1468.3627900000001 153.81521 1468.23828 153.91601 1468.07617 L 156.47172 1463.9675300000001 C 157.02502 1467.2271700000001 157.89367000000001 1470.4654500000001 159.55956 1473.4118700000001 C 160.40529 1474.9069900000002 161.42049 1476.0234400000002 162.53823 1476.7480500000001 L 159.28018 1481.98315 z M 152.72566 1465.99695 L 147.80641 1450.82544 C 148.05653 1450.7590300000002 148.28355 1450.6024200000002 148.431 1450.36536 L 152.27020000000002 1444.2013 C 152.61880000000002 1444.78406 152.92302 1445.37134 153.17494000000002 1445.9445899999998 C 154.81253 1449.6705399999998 155.27159000000003 1453.9780399999997 155.71623000000002 1458.1435599999998 L 155.81401000000002 1459.0585999999998 C 155.87372000000002 1459.6112099999998 155.93715000000003 1460.16798 156.00436000000002 1460.72608 L 152.72566 1465.99695 z M 147.07156 1448.55908 L 143.71644 1438.21142 C 143.96591 1438.2336400000002 144.22605000000001 1438.2429100000002 144.46414000000001 1438.28051 C 147.13911000000002 1438.70263 149.33656000000002 1440.34777 150.95537000000002 1442.32531 L 147.07156 1448.55908 z M 192.87013 1585.86169 C 192.59428 1586.69653 191.86348999999998 1586.6892 191.59382 1585.87097 L 187.47316999999998 1573.1623499999998 L 192.25313999999997 1565.4800999999998 L 197.00293999999997 1573.1153499999998 L 192.87013 1585.86169 z M 237.40295 1448.51379 L 234.72784000000001 1444.20752 L 239.91297 1435.8731699999998 C 240.09334 1435.90845 240.26646 1435.9386 240.44961 1435.9749799999997 C 240.76515 1436.0373599999998 241.08724 1436.0988799999998 241.40832 1436.1603999999998 L 237.40295 1448.51379 z" stroke-linecap="round" />
</g>
		<g transform="matrix(1 0 0 1 -0.00003000000006636583 -56.52023236638411)"  >
<path style="stroke: none; stroke-width: 1; stroke-dasharray: none; stroke-linecap: butt; stroke-dashoffset: 0; stroke-linejoin: miter; stroke-miterlimit: 4; fill: rgb(255,172,213); fill-rule: nonzero; opacity: 1;"  paint-order="stroke"  transform=" translate(-192.23401999999996, -1384.2243976336156)" d="M 237.49969 1421.30359 C 227.18737 1420.27637 218.81005 1421.27271 206.96098999999998 1423.47327 C 205.81847 1423.6792 204.71612 1422.9298099999999 204.50303999999997 1421.78528 C 204.29099999999997 1420.64075 205.04649999999998 1419.54041 206.19108999999997 1419.3273900000002 C 215.85392999999996 1417.5333200000002 225.48802999999998 1416.0089100000002 236.93461999999997 1417.0166000000002 C 236.95005999999998 1417.0022000000001 236.96549999999996 1416.98889 236.98197999999996 1416.97449 C 252.53538999999995 1403.77906 261.45615999999995 1384.53675 261.45615999999995 1364.18164 C 261.45615999999995 1326.01294 230.40281999999996 1294.96057 192.23404999999997 1294.96057 C 154.06522999999999 1294.96057 123.01187999999996 1326.01294 123.01187999999996 1364.18164 C 123.01187999999996 1384.17224 131.63205999999997 1403.07532 146.67288999999997 1416.2456 C 154.84341999999998 1414.06115 159.35867999999996 1415.02929 163.72299999999996 1415.97497 C 164.86136999999997 1416.2220399999999 165.61789999999996 1417.35119 165.37082999999996 1418.4885199999999 C 165.12485999999996 1419.62585 164.04617999999996 1420.3566799999999 162.89853999999997 1420.1105899999998 C 158.60397999999998 1419.1782199999998 154.60593999999998 1418.3146899999997 146.76480999999995 1420.5911799999997 C 144.26755999999995 1421.4666699999996 138.55545999999995 1423.4839999999997 136.40591999999995 1426.0546799999997 C 135.38687999999996 1427.2744099999998 134.85061999999996 1429.0519899999997 135.04000999999994 1430.5845899999997 C 135.12856999999994 1431.3061499999997 135.42397999999994 1432.3024899999998 136.32149999999993 1432.9539699999998 C 137.45980999999992 1433.78075 139.06929999999994 1433.8626599999998 140.93257999999992 1433.8874399999997 C 140.94343999999992 1433.8882899999996 140.95454999999993 1433.8869499999998 140.9654199999999 1433.8879299999996 C 141.11659999999992 1433.8898799999997 141.2660799999999 1433.8920799999996 141.4205599999999 1433.8936699999997 C 142.6247799999999 1433.9061199999996 143.8691699999999 1433.9194299999997 145.12081999999992 1434.1160799999998 C 150.06649999999993 1434.8962299999998 154.63131999999993 1438.77868 157.03469999999993 1444.2482799999998 C 158.93478999999994 1448.57335 159.42983999999993 1453.2112899999997 159.90847999999994 1457.6968899999997 L 160.00521999999995 1458.6056999999996 C 160.49923999999996 1463.1839499999996 161.11788999999996 1467.6015499999996 163.22994999999995 1471.3368999999996 C 163.82589999999993 1472.3908599999995 164.80990999999995 1473.5055999999995 165.62404999999995 1473.4880199999996 C 166.68831999999995 1473.4603099999995 167.57350999999994 1471.6281599999995 167.89565999999996 1469.8331099999996 C 168.58010999999996 1466.0278099999996 168.52559999999997 1462.1330399999995 168.46792999999997 1458.0097499999995 C 168.38870999999997 1452.3580199999994 168.30636999999996 1446.5136599999994 170.30313999999996 1440.9483499999994 C 170.76120999999995 1439.6762599999995 171.58359999999996 1437.8996399999994 173.44968999999995 1437.1575799999994 C 174.57669999999996 1436.7077499999994 175.84067999999994 1436.7664699999993 177.00376999999995 1437.3212799999994 C 178.38401999999994 1437.9788699999995 179.52756999999994 1439.3077299999995 179.98972999999995 1440.7888099999993 C 180.48685999999995 1442.3780399999994 180.35306999999995 1443.9363899999994 180.23569999999995 1445.3115199999993 C 180.20481999999996 1445.6686999999993 180.17392999999996 1446.0247799999993 180.15543999999994 1446.3798799999993 C 180.08957999999996 1447.6984799999993 180.33554999999996 1448.6700399999993 180.83268999999993 1449.0457699999993 C 181.06528999999992 1449.2227699999992 181.39054999999993 1449.2731899999992 181.79917999999992 1449.1960399999994 C 182.52994999999993 1449.0571199999993 183.27927999999991 1448.5403999999994 183.66422999999992 1447.9103999999993 C 184.53708999999992 1446.4808299999993 184.5494199999999 1444.5179399999993 184.56278999999992 1442.4398199999994 C 184.57926999999992 1439.8089599999994 184.74088999999992 1436.8981899999994 186.4639099999999 1434.5596899999994 C 188.4946699999999 1431.8043199999993 192.2597499999999 1430.4589799999994 197.1035599999999 1430.7729499999994 C 197.9856399999999 1430.8305699999994 198.87186999999992 1430.9262699999992 199.7590799999999 1431.0230699999993 C 202.0317199999999 1431.2722199999994 204.1777799999999 1431.5047599999994 206.1282799999999 1431.0251499999993 C 206.6285199999999 1430.9025899999992 207.1400599999999 1430.7369399999993 207.6536699999999 1430.5732499999992 C 209.7214799999999 1429.9124799999993 212.2926499999999 1429.0921699999992 214.70627999999988 1430.5042799999992 C 216.64340999999988 1431.6396599999991 217.41330999999988 1433.6971499999993 217.9238099999999 1435.0588499999992 L 221.2617599999999 1443.9744999999991 C 221.5417299999999 1444.7237699999991 222.1243099999999 1446.2811399999991 222.8982999999999 1446.538459999999 C 223.07126999999988 1446.5981499999991 223.3017999999999 1446.6269599999991 223.67441999999988 1446.401499999999 C 224.45151999999987 1445.929089999999 225.17197999999988 1444.7279199999991 225.35007999999988 1443.608039999999 C 225.46225999999987 1442.906139999999 225.50443999999987 1442.149539999999 225.54868999999988 1441.347789999999 C 225.6588599999999 1439.3787999999988 225.78336999999988 1437.1462499999989 227.05143999999987 1435.1566299999988 C 228.90415999999988 1432.2500099999988 232.71867999999986 1430.766739999999 237.24650999999986 1431.1888599999988 C 238.63291999999987 1431.317519999999 239.97306999999986 1431.581929999999 241.26786999999985 1431.8382699999988 C 242.34537999999984 1432.0524999999989 243.38493999999986 1432.2390299999988 244.40311999999986 1432.3579199999988 C 244.40811999999985 1432.3584099999987 244.41324999999986 1432.359139999999 244.41831999999985 1432.3596299999988 C 245.00944999999984 1432.4283599999987 245.59525999999985 1432.4799899999987 246.17240999999984 1432.4857299999987 C 248.35654999999986 1432.4722999999988 250.94517999999985 1431.4533799999988 251.44230999999985 1429.5913199999986 C 251.75419999999986 1428.4272599999986 251.19938999999985 1426.9007699999986 250.02909999999986 1425.7027699999987 C 247.79352 1423.4126 242.03369 1421.75647 237.49969 1421.30359 z M 230.02814 1348.77441 L 226.15290000000002 1353.69226 C 225.63312000000002 1354.35205 224.86121000000003 1354.6969000000001 224.08100000000002 1354.6969000000001 C 223.51075000000003 1354.6969000000001 222.93537 1354.51257 222.45264000000003 1354.13171 C 221.30915000000005 1353.2312000000002 221.11255000000003 1351.5739700000001 222.01319000000004 1350.4315100000001 L 225.88837000000004 1345.51366 C 226.78797000000003 1344.3710800000001 228.44513000000003 1344.17247 229.58869000000004 1345.07408 C 230.73218 1345.97473 230.92877 1347.63184 230.02814 1348.77441 z M 226.52759 1312.71558 C 227.87287 1312.16285 229.4137 1312.80823 229.96332 1314.15662 L 232.31006000000002 1319.89283 C 232.86176000000003 1321.23914 232.21643000000003 1322.77784 230.86908000000003 1323.3285 C 230.54279000000002 1323.4622900000002 230.20520000000002 1323.52613 229.87274000000002 1323.52613 C 228.83417000000003 1323.52613 227.85022000000004 1322.90858 227.43335000000002 1321.88758 L 225.08661 1316.15137 C 224.53491 1314.80505 225.18024 1313.26624 226.52759 1312.71558 z M 216.18335 1325.3418 C 217.25995 1324.36292 218.92737 1324.44226 219.90520999999998 1325.5187999999998 L 225.12053999999998 1331.2550099999999 C 226.09941999999998 1332.3316699999998 226.02013999999997 1333.99805 224.94353999999998 1334.9769299999998 C 224.43914999999998 1335.43591 223.80407 1335.6623499999998 223.17211999999998 1335.6623499999998 C 222.45574999999997 1335.6623499999998 221.74146 1335.37207 221.22161999999997 1334.7997999999998 L 216.00628999999998 1329.0637199999999 C 215.02747 1327.98706 215.10669 1326.32068 216.18335 1325.3418 z M 145.5603 1331.90344 C 144.59692 1330.81238 144.70086 1329.14709 145.79089000000002 1328.18359 C 146.88189000000003 1327.2192300000002 148.5473 1327.32312 149.51068 1328.41418 L 153.18213 1332.57043 C 154.14557 1333.66149 154.04157 1335.32678 152.9516 1336.29028 C 152.45032 1336.73278 151.82764 1336.94995 151.20801 1336.94995 C 150.47821 1336.94995 149.75257 1336.64941 149.23175 1336.05969 L 145.5603 1331.90344 z M 158.26782 1354.6969 L 150.18487 1354.6969 C 148.72949 1354.6969 147.54992 1353.51733 147.54992 1352.06189 C 147.54992 1350.60645 148.72949 1349.42688 150.18487 1349.42688 L 158.26782 1349.42688 C 159.7232 1349.42688 160.90277 1350.60645 160.90277 1352.06189 C 160.90277 1353.51733 159.72321 1354.6969 158.26782 1354.6969 z M 165.48718 1315.83643 C 164.0318 1315.83643 162.85223 1314.65686 162.85223 1313.20142 C 162.85223 1311.7461 164.0318 1310.56653 165.48718 1310.56653 L 173.57013 1310.56653 C 175.02551 1310.56653 176.20508 1311.7461 176.20508 1313.20142 C 176.20508 1314.65686 175.02551 1315.83643 173.57013 1315.83643 L 165.48718 1315.83643 z M 176.95953 1331.55139 L 173.08429 1336.47034 C 172.56451 1337.13013 171.79254 1337.4749800000002 171.01233000000002 1337.4749800000002 C 170.44214000000002 1337.4749800000002 169.86676000000003 1337.2906500000001 169.38403000000002 1336.9099200000003 C 168.24048000000002 1336.0092900000002 168.04388000000003 1334.3520600000004 168.94452 1333.2096000000004 L 172.81976 1328.2906500000004 C 173.71936 1327.1491700000004 175.37652 1326.9495900000004 176.52002 1327.8512000000003 C 177.66357 1328.75183 177.86017 1330.40894 176.95953 1331.55139 z M 190.12506 1351.23328 L 186.24982 1356.15223 C 185.73004 1356.8120199999998 184.95807 1357.15687 184.17786 1357.15687 C 183.60767 1357.15687 183.03229000000002 1356.97254 182.54956 1356.5918100000001 C 181.40601 1355.69118 181.20941000000002 1354.0339500000002 182.11005 1352.8914900000002 L 185.98529 1347.9725400000002 C 186.88488999999998 1346.8300800000002 188.54199 1346.6303800000003 189.68554999999998 1347.5330900000001 C 190.8291 1348.43372 191.0257 1350.09082 190.12506 1351.23328 z M 197.90637 1337.47498 L 189.82348000000002 1337.47498 C 188.36804 1337.47498 187.18853000000001 1336.29541 187.18853000000001 1334.83997 C 187.18853000000001 1333.38453 188.36803 1332.20508 189.82348000000002 1332.20508 L 197.90637 1332.20508 C 199.36181000000002 1332.20508 200.54138 1333.38452 200.54138 1334.83997 C 200.54138 1336.29542 199.36182 1337.47498 197.90637 1337.47498 z M 198.23987 1320.89636 C 198.17609 1320.90149 198.11328 1320.90356 198.0495 1320.90356 C 196.6795 1320.90356 195.52362 1319.84436 195.42481 1318.45593 L 194.904 1311.1676 C 194.80006 1309.71631 195.8921 1308.45544 197.34443 1308.35254 C 198.78027999999998 1308.23718 200.05659 1309.3396 200.15948999999998 1310.7929700000002 L 200.6803 1318.0813000000003 C 200.78424 1319.53259 199.6922 1320.79346 198.23987 1320.89636 z" stroke-linecap="round" />
</g>
</g>
</g>
</g>
</g>
<g transform="matrix(2.8136087157936203 0 0 2.8136087157936203 640 699.7923108451683)" id="text-logo"  >
<g style=""  paint-order="stroke"   >
		<g transform="matrix(1 0 0 1 0 0)" id="text-logo-path-0"  >
<filter id="SVGID_594121" y="-29.46516225812985%" height="158.9303245162597%" x="-20%" width="140%" >
	<feGaussianBlur in="SourceAlpha" stdDeviation="0"></feGaussianBlur>
	<feOffset dx="0" dy="2.451477024855631" result="oBlur" ></feOffset>
	<feFlood flood-color="rgb(255,173,212)" flood-opacity="1"/>
	<feComposite in2="oBlur" operator="in" />
	<feMerge>
		<feMergeNode></feMergeNode>
		<feMergeNode in="SourceGraphic"></feMergeNode>
	</feMerge>
</filter>
<path style="stroke: rgb(255,255,255); stroke-width: 2.941772429826758; stroke-dasharray: none; stroke-linecap: butt; stroke-dashoffset: 0; stroke-linejoin: miter; stroke-miterlimit: 4; fill: rgb(54,182,254); fill-rule: nonzero; opacity: 1;filter: url(#SVGID_594121);"  paint-order="stroke"  transform=" translate(-227.255, 12.6)" d="M 10.54 -9.42 C 10.89 -9.42 11.2 -9.42 11.59 -9.45 L 15.44 -2.8 L 13.93 -1.75 L 14.28 0 L 22.68 0 L 23.03 -1.75 L 21 -3.05 L 16.14 -10.71 C 18.62 -11.97 20.48 -14.21 20.48 -17.57 C 20.48 -21.91 17.71 -24.5 10.54 -24.5 L 1.61 -24.5 L 1.26 -22.75 L 2.94 -21.7 L 2.94 -2.8 L 1.26 -1.75 L 1.61 0 L 9.17 0 L 9.52 -1.75 L 7.84 -2.8 L 7.84 -9.42 Z M 7.84 -12.88 L 7.84 -21.04 L 10.89 -21.04 C 14.35 -21.04 15.4 -19.74 15.4 -17.08 C 15.4 -14.35 14.49 -12.88 10.89 -12.88 Z M 42.25 0.35 C 49.04 0.35 53.23 -4.17 53.23 -12.25 C 53.23 -20.16 49.42 -24.85 42.25 -24.85 C 35.42 -24.85 31.22 -20.34 31.22 -12.25 C 31.22 -4.34 35.07 0.35 42.25 0.35 Z M 36.3 -12.25 C 36.3 -18.13 38.26 -21.35 42.25 -21.35 C 46.06 -21.35 48.16 -18.34 48.16 -12.25 C 48.16 -6.37 46.2 -3.15 42.25 -3.15 C 38.4 -3.15 36.3 -6.16 36.3 -12.25 Z M 73.85 0.35 C 77.84 0.35 81.13 -1.65 83.3 -4.17 L 83.3 -13.3 L 73.85 -13.3 L 73.85 -10.15 L 78.4 -10.15 L 78.4 -6.3 C 78.4 -4.59 76.9 -3.15 74.45 -3.15 C 70.21 -3.15 67.9 -6.16 67.9 -12.25 C 67.9 -18.13 70.07 -21.35 74.45 -21.35 C 75.6 -21.35 76.69 -21.11 77.63 -20.72 L 77.67 -18.9 L 79.28 -18.2 L 82.28 -22.54 C 80.08 -24.08 77.25 -24.85 73.85 -24.85 C 67.03 -24.85 62.83 -20.34 62.83 -12.25 C 62.83 -4.34 66.67 0.35 73.85 0.35 Z M 92.72 -22.75 L 94.39 -21.7 L 94.39 -2.8 L 92.72 -1.75 L 93.06 0 L 110.22 0 L 110.22 -4.8 L 108.47 -5.15 L 107.41 -3.47 L 99.3 -3.47 L 99.3 -10.85 L 104.27 -10.85 L 105.31 -9.17 L 107.06 -9.52 L 107.06 -15.33 L 105.31 -15.68 L 104.27 -14 L 99.3 -14 L 99.3 -21.04 L 106.72 -21.04 L 107.77 -19.36 L 109.52 -19.71 L 109.52 -24.5 L 93.06 -24.5 Z M 128.66 -9.42 C 129.01 -9.42 129.32 -9.42 129.71 -9.45 L 133.56 -2.8 L 132.06 -1.75 L 132.41 0 L 140.81 0 L 141.16 -1.75 L 139.13 -3.05 L 134.26 -10.71 C 136.75 -11.97 138.6 -14.21 138.6 -17.57 C 138.6 -21.91 135.84 -24.5 128.66 -24.5 L 119.73 -24.5 L 119.39 -22.75 L 121.06 -21.7 L 121.06 -2.8 L 119.39 -1.75 L 119.73 0 L 127.3 0 L 127.64 -1.75 L 125.97 -2.8 L 125.97 -9.42 Z M 125.97 -12.88 L 125.97 -21.04 L 129.01 -21.04 C 132.47 -21.04 133.53 -19.74 133.53 -17.08 C 133.53 -14.35 132.62 -12.88 129.01 -12.88 Z M 153.44 -25.55 L 149.59 -25.55 L 149.59 -22.19 L 150.29 -17.5 L 152.74 -17.5 L 153.44 -22.19 Z M 165.69 -6.58 L 162.75 -4.17 C 164.92 -1.65 168.21 0.35 172.2 0.35 C 176.19 0.35 181.37 -1.54 181.37 -6.86 C 181.37 -11.06 177.35 -12.99 173.81 -14.84 C 171.01 -16.31 168.42 -17.29 168.42 -18.83 C 168.42 -20.27 170.21 -21.35 172.9 -21.35 C 173.99 -21.35 174.86 -21.25 175.63 -21.04 L 175.67 -19.25 L 177.28 -18.55 L 178.22 -19.88 L 180.29 -22.89 C 178.36 -24.19 175.88 -24.85 172.9 -24.85 C 167.69 -24.85 163.98 -22.19 163.98 -18.06 C 163.98 -14.07 168 -12.25 171.54 -10.4 C 174.48 -8.86 177.14 -7.91 177.14 -6.2 C 177.14 -4.17 174.9 -3.15 172.52 -3.15 C 169.75 -3.15 167.41 -4.34 165.69 -6.58 Z M 209.76 -22.75 L 211.44 -21.7 L 211.44 -2.8 L 209.76 -1.75 L 210.11 0 L 217.67 0 L 218.02 -1.75 L 216.34 -2.8 L 216.34 -11.2 L 226.14 -11.2 L 226.14 -2.8 L 224.46 -1.75 L 224.81 0 L 232.37 0 L 232.72 -1.75 L 231.04 -2.8 L 231.04 -21.7 L 232.72 -22.75 L 232.37 -24.5 L 224.81 -24.5 L 224.46 -22.75 L 226.14 -21.7 L 226.14 -14.35 L 216.34 -14.35 L 216.34 -21.7 L 218.02 -22.75 L 217.67 -24.5 L 210.11 -24.5 Z M 253.05 0.35 C 259.84 0.35 264.04 -4.17 264.04 -12.25 C 264.04 -20.16 260.23 -24.85 253.05 -24.85 C 246.23 -24.85 242.03 -20.34 242.03 -12.25 C 242.03 -4.34 245.88 0.35 253.05 0.35 Z M 247.1 -12.25 C 247.1 -18.13 249.06 -21.35 253.05 -21.35 C 256.87 -21.35 258.97 -18.34 258.97 -12.25 C 258.97 -6.37 257.01 -3.15 253.05 -3.15 C 249.2 -3.15 247.1 -6.16 247.1 -12.25 Z M 273.35 -22.75 L 275.03 -21.7 L 275.03 -2.8 L 273.35 -1.75 L 273.7 0 L 280.63 0 L 280.98 -1.75 L 278.95 -2.8 L 278.95 -20.41 L 285.25 0 L 288.75 0 L 295.05 -20.41 L 295.05 -2.8 L 293.37 -1.75 L 293.72 0 L 300.86 0 L 301.21 -1.75 L 299.53 -2.8 L 299.53 -21.7 L 301.21 -22.75 L 300.86 -24.5 L 292.6 -24.5 L 287.7 -8.72 L 282.94 -24.5 L 273.7 -24.5 Z M 310.59 -22.75 L 312.27 -21.7 L 312.27 -2.8 L 310.59 -1.75 L 310.94 0 L 328.09 0 L 328.09 -4.8 L 326.34 -5.15 L 325.29 -3.47 L 317.17 -3.47 L 317.17 -10.85 L 322.14 -10.85 L 323.19 -9.17 L 324.94 -9.52 L 324.94 -15.33 L 323.19 -15.68 L 322.14 -14 L 317.17 -14 L 317.17 -21.04 L 324.59 -21.04 L 325.64 -19.36 L 327.39 -19.71 L 327.39 -24.5 L 310.94 -24.5 Z M 337.26 -22.75 L 338.94 -21.7 L 338.94 -2.8 L 337.26 -1.75 L 337.61 0 L 344.54 0 L 344.89 -1.75 L 342.86 -2.8 L 342.86 -20.41 L 349.16 0 L 352.66 0 L 358.96 -20.41 L 358.96 -2.8 L 357.28 -1.75 L 357.63 0 L 364.77 0 L 365.12 -1.75 L 363.44 -2.8 L 363.44 -21.7 L 365.12 -22.75 L 364.77 -24.5 L 356.51 -24.5 L 351.61 -8.72 L 346.85 -24.5 L 337.61 -24.5 Z M 373.35 -1.75 L 373.7 0 L 380.87 0 L 381.4 -1.75 L 379.09 -2.8 L 380.73 -7 L 388.82 -7 L 390.22 -2.8 L 387.91 -1.75 L 388.43 0 L 396.94 0 L 397.29 -1.75 L 395.4 -2.8 L 387.91 -24.5 L 381.08 -24.5 L 380.56 -22.75 L 382.17 -21.7 L 375.24 -2.8 Z M 381.61 -10.15 L 384.83 -19.57 L 388.05 -10.15 Z M 405.51 -22.75 L 407.19 -21.7 L 407.19 -2.8 L 405.51 -1.75 L 405.86 0 L 415.49 0 C 422.24 0 426.48 -4.38 426.48 -12.25 C 426.48 -19.95 422.66 -24.5 415.49 -24.5 L 405.86 -24.5 Z M 415.49 -3.47 L 412.09 -3.47 L 412.09 -21.04 L 415.49 -21.04 C 419.27 -21.04 421.4 -18.2 421.4 -12.25 C 421.4 -6.51 419.44 -3.47 415.49 -3.47 Z M 435.75 -22.75 L 437.43 -21.7 L 437.43 -2.8 L 435.75 -1.75 L 436.1 0 L 453.25 0 L 453.25 -4.8 L 451.5 -5.15 L 450.45 -3.47 L 442.33 -3.47 L 442.33 -10.85 L 447.3 -10.85 L 448.35 -9.17 L 450.1 -9.52 L 450.1 -15.33 L 448.35 -15.68 L 447.3 -14 L 442.33 -14 L 442.33 -21.04 L 449.75 -21.04 L 450.8 -19.36 L 452.55 -19.71 L 452.55 -24.5 L 436.1 -24.5 Z" stroke-linecap="round" />
</g>
</g>
</g>
<g transform="matrix(2.8136087157936203 0 0 2.8136087157936203 639.4829993984729 856.4880460509243)" id="tagline-eaaf9ccc-a2da-4b31-9f47-f32df66758e7-logo"  >
<g style=""  paint-order="stroke"   >
		<g transform="matrix(1 0 0 1 0 0)" id="tagline-eaaf9ccc-a2da-4b31-9f47-f32df66758e7-logo-path-0"  >
<path style="stroke: none; stroke-width: 0; stroke-dasharray: none; stroke-linecap: butt; stroke-dashoffset: 0; stroke-linejoin: miter; stroke-miterlimit: 4; fill: rgb(255,255,255); fill-rule: nonzero; opacity: 1;"  paint-order="stroke"  transform=" translate(-116.045, 11.725)" d="M 7.35 0 L 7.35 -23.45 L 1.75 -23.45 L 1.75 0 Z M 37.52 -5.15 L 32.52 -8.05 C 31.4 -6.37 29.51 -5.25 27.27 -5.25 C 23.7 -5.25 20.86 -8.12 20.86 -11.73 C 20.86 -15.33 23.73 -18.2 27.27 -18.2 C 29.51 -18.2 31.57 -17.01 32.73 -15.16 L 37.66 -18.03 C 35.45 -21.56 31.61 -23.84 27.27 -23.84 C 22.79 -23.84 18.83 -21.49 16.7 -17.78 C 15.61 -15.93 15.09 -13.9 15.09 -11.73 C 15.09 -7.39 17.4 -3.47 21.14 -1.26 C 23 -0.18 25.06 0.39 27.27 0.39 C 31.5 0.39 35.28 -1.79 37.52 -5.15 Z M 45.4 0 L 62.2 0 L 62.2 -4.9 L 51 -4.9 L 51 -9.28 L 60.1 -9.28 L 60.1 -14.18 L 51 -14.18 L 51 -18.55 L 62.2 -18.55 L 62.2 -23.45 L 45.4 -23.45 Z M 69.93 -6.3 L 81.83 -6.3 L 81.83 -10.5 L 69.93 -10.5 Z M 112 -5.15 L 107 -8.05 C 105.88 -6.37 103.99 -5.25 101.75 -5.25 C 98.18 -5.25 95.34 -8.12 95.34 -11.73 C 95.34 -15.33 98.21 -18.2 101.75 -18.2 C 103.99 -18.2 106.05 -17.01 107.21 -15.16 L 112.14 -18.03 C 109.94 -21.56 106.09 -23.84 101.75 -23.84 C 97.27 -23.84 93.31 -21.49 91.18 -17.78 C 90.09 -15.93 89.57 -13.9 89.57 -11.73 C 89.57 -7.39 91.88 -3.47 95.62 -1.26 C 97.48 -0.18 99.54 0.39 101.75 0.39 C 105.98 0.39 109.76 -1.79 112 -5.15 Z M 139.44 0 L 134.16 -8.47 C 136.96 -9.63 138.92 -12.39 138.92 -15.68 C 138.92 -19.92 135.63 -23.28 131.43 -23.45 L 119.88 -23.45 L 119.88 0 L 125.48 0 L 125.48 -7.88 L 127.72 -7.88 L 132.65 0 Z M 130.45 -12.78 L 125.48 -12.78 L 125.48 -18.55 L 130.45 -18.55 C 132.16 -18.55 133.32 -17.36 133.32 -15.65 C 133.32 -13.93 132.16 -12.78 130.45 -12.78 Z M 147.18 0 L 163.98 0 L 163.98 -4.9 L 152.78 -4.9 L 152.78 -9.28 L 161.88 -9.28 L 161.88 -14.18 L 152.78 -14.18 L 152.78 -18.55 L 163.98 -18.55 L 163.98 -23.45 L 147.18 -23.45 Z M 177.87 0 L 179.62 -4.55 L 188.16 -4.55 L 189.91 0 L 196.07 0 L 186.97 -23.45 L 180.81 -23.45 L 171.71 0 Z M 181.55 -9.45 L 183.89 -15.51 L 186.24 -9.45 Z M 209.41 0 L 209.41 -11.13 L 213.99 0 L 220.12 0 L 224.74 -11.2 L 224.74 0 L 230.34 0 L 230.34 -23.45 L 223.69 -23.45 L 217.07 -7.35 L 210.42 -23.45 L 203.81 -23.45 L 203.81 0 Z" stroke-linecap="round" />
</g>
</g>
</g>
</svg>